<svg width="20" height="20" viewBox="0 0 20 20" fill="none" xmlns="http://www.w3.org/2000/svg">
<path d="M15 0H5C2.23858 0 0 2.23858 0 5V15C0 17.7614 2.23858 20 5 20H15C17.7614 20 20 17.7614 20 15V5C20 2.23858 17.7614 0 15 0Z" fill="#274591"/>
<path fill-rule="evenodd" clip-rule="evenodd" d="M5 0C2.23858 0 0 2.23858 0 5V15C0 17.7614 2.23858 20 5 20H15C17.7614 20 20 17.7614 20 15V5C20 2.23858 17.7614 0 15 0H5ZM8.55975 13.8287C8.95261 14.1708 9.36982 14.534 9.80707 14.9258C9.91754 15.0247 10.0824 15.0247 10.1929 14.9258C10.6305 14.5337 11.0479 14.1703 11.4409 13.8281C13.5835 11.9627 15 10.7294 15 8.93029C15 7.32029 13.8791 5.99999 12.3437 5.99999C11.2784 5.99999 10.4879 6.66999 10 7.62029C9.51205 6.66993 8.72156 5.99999 7.65625 5.99999C6.12109 5.99999 5 7.32003 5 8.93029C5 10.7296 6.41829 11.9644 8.55975 13.8287Z" fill="#4DA9FF"/>
<path d="M10 11V12M9 11H10H9ZM10 11H11H10ZM10 11V10V11Z" stroke="#4DA9FF" stroke-width="0.8" stroke-linecap="round"/>
</svg>
