<svg width="20" height="20" viewBox="0 0 20 20" fill="none" xmlns="http://www.w3.org/2000/svg">
<path fill-rule="evenodd" clip-rule="evenodd" d="M0 5C0 2.23858 2.23858 0 5 0H15C17.7614 0 20 2.23858 20 5V15C20 17.7614 17.7614 20 15 20H5C2.23858 20 0 17.7614 0 15V5Z" fill="#274591"/>
<path fill-rule="evenodd" clip-rule="evenodd" d="M5 0C2.23858 0 0 2.23858 0 5V15C0 17.7614 2.23858 20 5 20H15C17.7614 20 20 17.7614 20 15V5C20 2.23858 17.7614 0 15 0H5ZM10 13C10.5523 13 11 12.5523 11 12C11 11.4477 10.5523 11 10 11C9.44771 11 9 11.4477 9 12C9 12.5523 9.44771 13 10 13ZM10 6.69375C8.47684 6.69374 7.10141 7.25469 6.50729 8.19537C6.33034 8.47554 5.95977 8.55921 5.6796 8.38226C5.39943 8.20531 5.31576 7.83474 5.49271 7.55457C6.39859 6.12028 8.27316 5.49374 10 5.49375C11.7268 5.49375 13.6014 6.1203 14.5073 7.55461C14.6842 7.83478 14.6006 8.20535 14.3204 8.3823C14.0402 8.55925 13.6697 8.47557 13.4927 8.1954C12.8986 7.2547 11.5232 6.69375 10 6.69375ZM8.49923 10.3328C8.81122 9.86484 9.3814 9.60001 10 9.6C10.6186 9.6 11.1888 9.86483 11.5008 10.3328C11.6846 10.6085 12.0571 10.683 12.3328 10.4992C12.6085 10.3154 12.683 9.94288 12.4992 9.66717C11.9223 8.80183 10.937 8.4 10 8.4C9.06304 8.40001 8.07767 8.80185 7.50077 9.66718C7.31696 9.9429 7.39146 10.3154 7.66718 10.4992C7.9429 10.683 8.31542 10.6085 8.49923 10.3328Z" fill="#4DA9FF"/>
</svg>
