<svg width="23" height="19" viewBox="0 0 23 19" fill="none" xmlns="http://www.w3.org/2000/svg">
<path fill-rule="evenodd" clip-rule="evenodd" d="M5 0C2.23858 0 0 2.23858 0 5V14C0 16.7614 2.23858 19 5 19H18C20.7614 19 23 16.7614 23 14V5C23 2.23858 20.7614 0 18 0H5Z" fill="#274591"/>
<path fill-rule="evenodd" clip-rule="evenodd" d="M0 5C0 2.23858 2.23858 0 5 0H18C20.7614 0 23 2.23858 23 5V14C23 16.7614 20.7614 19 18 19H5C2.23858 19 0 16.7614 0 14V5ZM7 7.4C7.33137 7.4 7.6 7.66863 7.6 8V9.4H9C9.33137 9.4 9.6 9.66863 9.6 10C9.6 10.3314 9.33137 10.6 9 10.6H7.6V12C7.6 12.3314 7.33137 12.6 7 12.6C6.66863 12.6 6.4 12.3314 6.4 12V10.6H5C4.66863 10.6 4.4 10.3314 4.4 10C4.4 9.66863 4.66863 9.4 5 9.4H6.4V8C6.4 7.66863 6.66863 7.4 7 7.4ZM16 10C16 10.5523 15.5523 11 15 11C14.4477 11 14 10.5523 14 10C14 9.44772 14.4477 9 15 9C15.5523 9 16 9.44772 16 10ZM17 10C17 11.1046 16.1046 12 15 12C13.8954 12 13 11.1046 13 10C13 8.89543 13.8954 8 15 8C16.1046 8 17 8.89543 17 10Z" fill="#4DA9FF"/>
</svg>
