<svg width="20" height="20" viewBox="0 0 20 20" fill="none" xmlns="http://www.w3.org/2000/svg">
<path fill-rule="evenodd" clip-rule="evenodd" d="M0 5C0 2.23858 2.23858 0 5 0H15C17.7614 0 20 2.23858 20 5V15C20 17.7614 17.7614 20 15 20H5C2.23858 20 0 17.7614 0 15V5Z" fill="#274591"/>
<path fill-rule="evenodd" clip-rule="evenodd" d="M5 0C2.23858 0 0 2.23858 0 5V15C0 17.7614 2.23858 20 5 20H15C17.7614 20 20 17.7614 20 15V5C20 2.23858 17.7614 0 15 0H5ZM13.8 10C13.8 11.4925 12.9396 12.784 11.6877 13.4056C12.075 12.6301 12.371 11.6245 12.4669 10.509C12.9068 10.3659 13.3525 10.1742 13.7993 9.92429C13.7998 9.94947 13.8 9.9747 13.8 10ZM15 10C15 12.7614 12.7614 15 10 15C7.23858 15 5 12.7614 5 10C5 7.23858 7.23858 5 10 5C12.7614 5 15 7.23858 15 10ZM10 6.2C9.88107 6.2 9.76341 6.20546 9.64726 6.21615C9.50723 6.34559 9.35032 6.53527 9.19661 6.79527C8.81946 7.43324 8.51173 8.41223 8.50033 9.6664C9.37644 9.86945 10.4097 9.95768 11.5 9.73118C11.4988 8.44592 11.187 7.44418 10.8034 6.79527C10.6497 6.53527 10.4928 6.34559 10.3527 6.21615C10.2366 6.20546 10.1189 6.2 10 6.2ZM6.36519 8.88833C6.65054 7.95416 7.28614 7.17286 8.11894 6.69749C7.78628 7.40542 7.55188 8.31172 7.5076 9.37207C7.09285 9.22232 6.74207 9.06202 6.47361 8.92779C6.43833 8.91015 6.40197 8.89707 6.36519 8.88833ZM6.2011 9.90762C6.54295 10.0709 6.99373 10.2641 7.52695 10.4341C7.61577 11.5795 7.91637 12.6128 8.31226 13.4056C7.06041 12.784 6.2 11.4925 6.2 10C6.2 9.96912 6.20037 9.93833 6.2011 9.90762ZM9.22655 12.9977C8.91978 12.3965 8.66732 11.6011 8.55816 10.7011C9.41357 10.8713 10.3952 10.9378 11.4341 10.7626C11.3211 11.6373 11.0732 12.4102 10.7734 12.9977C10.5897 13.3579 10.4004 13.6213 10.2351 13.7928C10.1574 13.7976 10.079 13.8 10 13.8C9.92104 13.8 9.84265 13.7976 9.76489 13.7928C9.59964 13.6213 9.41029 13.3579 9.22655 12.9977ZM11.8811 6.69749C12.2204 7.41974 12.4576 8.34847 12.4949 9.43661C12.826 9.30792 13.1595 9.14621 13.4928 8.94625C13.5381 8.91906 13.586 8.89988 13.6348 8.88831C13.3495 7.95415 12.7139 7.17286 11.8811 6.69749Z" fill="#4DA9FF"/>
</svg>
