<svg width="20" height="20" viewBox="0 0 20 20" fill="none" xmlns="http://www.w3.org/2000/svg">
<path fill-rule="evenodd" clip-rule="evenodd" d="M5 0C2.23858 0 0 2.23858 0 5V15C0 17.7614 2.23858 20 5 20H15C17.7614 20 20 17.7614 20 15V5C20 2.23858 17.7614 0 15 0H5Z" fill="#274591"/>
<path fill-rule="evenodd" clip-rule="evenodd" d="M0 5C0 2.23858 2.23858 0 5 0H15C17.7614 0 20 2.23858 20 5V15C20 17.7614 17.7614 20 15 20H5C2.23858 20 0 17.7614 0 15V5ZM11.7927 14.5966C11.8813 14.4637 11.786 14.2857 11.6263 14.2857H8.3737C8.21396 14.2857 8.11869 14.4637 8.20729 14.5966L8.60729 15.1966C8.64439 15.2523 8.70683 15.2857 8.7737 15.2857H11.2263C11.2932 15.2857 11.3556 15.2523 11.3927 15.1966L11.7927 14.5966ZM14 9C14 10.2345 13.4408 11.3383 12.5619 12.0721C12.3845 12.2709 12.2594 12.4721 12.173 12.6554C12.016 12.9884 11.7015 13.2945 11.3333 13.2945H8.66667C8.29848 13.2945 7.9913 12.9863 7.8281 12.6562C7.71139 12.4202 7.55603 12.2097 7.43025 12.0655C6.55587 11.3317 6 10.2308 6 9C6 6.79086 7.79086 5 10 5C12.2091 5 14 6.79086 14 9Z" fill="#4DA9FF"/>
<path d="M10 6.33325C10.6667 6.33325 12 6.33325 12.6667 8.33323" stroke="#4DA9FF" stroke-width="0.5" stroke-linecap="round"/>
<path fill-rule="evenodd" clip-rule="evenodd" d="M10.2693 10.6044C10.5718 10.9092 10.7108 11.4238 10.6541 12.092C10.6277 12.4035 10.6272 12.0369 10.6343 12.6091C10.6378 12.8916 10.6242 12.7659 10.6286 12.9574C10.6307 13.0531 10.6327 13.1312 10.6341 13.1852L10.6358 13.2475V13.2882H9.96999L9.96767 13.2026C9.96624 13.1479 9.96426 13.0691 9.96206 12.9726C9.95766 12.7795 9.97119 12.9028 9.96767 12.6173C9.96451 12.3614 9.96268 13.084 9.9644 12.8246C9.91098 12.8337 9.85667 12.8368 9.80211 12.8339C9.46752 12.8163 9.18669 12.5852 9.00553 12.3469C8.81674 12.0986 8.67741 11.7688 8.66721 11.4335C8.65661 11.0847 8.78905 10.7211 9.14957 10.484C9.49869 10.2544 9.94859 10.2812 10.2693 10.6044ZM9.9936 11.9869C9.95129 12.0845 9.91059 12.1301 9.88663 12.1496C9.86518 12.1671 9.8518 12.1689 9.83715 12.1682C9.78531 12.1654 9.66425 12.1118 9.53626 11.9435C9.4159 11.7851 9.33883 11.5862 9.33357 11.4132C9.32872 11.2536 9.38177 11.1292 9.51589 11.041C9.60919 10.9797 9.70646 10.9837 9.79607 11.074C9.90076 11.1795 10.0305 11.4479 9.9936 11.9869Z" fill="#4DA9FF"/>
<path fill-rule="evenodd" clip-rule="evenodd" d="M10.3973 9.27113C10.0948 9.57593 9.9558 10.0906 10.0124 10.7588C10.0388 11.0701 10.0393 11.8686 10.0323 12.6102C10.0288 12.9764 10.0235 12.3221 10.0192 12.5764C10.017 12.7035 10.015 12.8077 10.0136 12.8801L10.0113 12.9923L10.6778 13.0071L10.6801 12.8931C10.6816 12.8203 10.6835 12.7156 10.6857 12.5879C10.6901 12.3325 10.6954 12.9849 10.6989 12.6165C10.7025 12.2432 10.7043 11.8414 10.7013 11.4912C10.755 11.5005 10.8096 11.5036 10.8645 11.5007C11.199 11.4831 11.4799 11.252 11.661 11.0137C11.8498 10.7653 11.9892 10.4356 11.9994 10.1002C12.01 9.75149 11.8775 9.38789 11.517 9.1508C11.1679 8.9212 10.718 8.94798 10.3973 9.27113ZM10.673 10.6536C10.7153 10.7512 10.756 10.7969 10.7799 10.8164C10.8014 10.8338 10.8148 10.8357 10.8294 10.8349C10.8813 10.8322 11.0023 10.7786 11.1303 10.6102C11.2507 10.4519 11.3277 10.253 11.333 10.08C11.3378 9.9204 11.2848 9.79601 11.1507 9.70781C11.0574 9.64644 10.9601 9.65042 10.8705 9.74072C10.7658 9.84622 10.636 10.1147 10.673 10.6536Z" fill="#4DA9FF"/>
</svg>
