<svg width="16" height="17" viewBox="0 0 16 17" fill="none" xmlns="http://www.w3.org/2000/svg">
<path d="M2.16949 5.69492C2.16949 2.5497 4.71919 0 7.86441 0C11.0096 0 13.5593 2.5497 13.5593 5.69491V10.08V14H2.16949V10.08V5.69492Z" fill="#6E5DE7"/>
<path d="M13.5593 14.0001C14.6229 14.0001 15.2721 12.8311 14.71 11.9282L13.5593 10.0801V14.0001Z" fill="#6E5DE7"/>
<path d="M1.05053 12.1019C0.578781 12.9543 1.19527 14.0001 2.16949 14.0001V10.0801L1.05053 12.1019Z" fill="#6E5DE7"/>
<path d="M5 15C5 15.5304 5.31607 16.0391 5.87868 16.4142C6.44129 16.7893 7.20435 17 8 17C8.79565 17 9.55871 16.7893 10.1213 16.4142C10.6839 16.0391 11 15.5304 11 15H5Z" fill="#6E5DE7"/>
</svg>
