<svg width="18" height="23" viewBox="0 0 18 23" fill="none" xmlns="http://www.w3.org/2000/svg">
<path fill-rule="evenodd" clip-rule="evenodd" d="M5 0C2.23858 0 0 2.23858 0 5V18C0 20.7614 2.23858 23 5 23H13C15.7614 23 18 20.7614 18 18V5C18 2.23858 15.7614 0 13 0H5Z" fill="#274591"/>
<path fill-rule="evenodd" clip-rule="evenodd" d="M0 5C0 2.23858 2.23858 0 5 0H13C15.7614 0 18 2.23858 18 5V18C18 20.7614 15.7614 23 13 23H5C2.23858 23 0 20.7614 0 18V5ZM5.5 5C5.5 4.72386 5.72386 4.5 6 4.5H12C12.2761 4.5 12.5 4.72386 12.5 5C12.5 5.27614 12.2761 5.5 12 5.5H6C5.72386 5.5 5.5 5.27614 5.5 5ZM9 20C10.1046 20 11 19.1046 11 18C11 16.8954 10.1046 16 9 16C7.89543 16 7 16.8954 7 18C7 19.1046 7.89543 20 9 20Z" fill="#4DA9FF"/>
</svg>
