<svg width="23" height="19" viewBox="0 0 23 19" fill="none" xmlns="http://www.w3.org/2000/svg">
<path fill-rule="evenodd" clip-rule="evenodd" d="M0 5.42857C0 2.43045 2.47139 0 5.52 0H17.48C20.377 0 22.7528 2.19473 22.9819 4.98571C22.8173 4.96644 22.6498 4.95652 22.48 4.95652H17.08C14.7604 4.95652 12.88 6.80578 12.88 9.08696C12.88 11.3681 14.7604 13.2174 17.08 13.2174H22.48C22.6561 13.2174 22.8296 13.2067 23 13.186V13.5714C23 16.5695 20.5286 19 17.48 19H5.52C2.47139 19 0 16.5695 0 13.5714V5.42857ZM3.5 6C3.5 5.72386 3.27614 5.5 3 5.5C2.72386 5.5 2.5 5.72386 2.5 6V12.5C2.5 12.7761 2.72386 13 3 13C3.27614 13 3.5 12.7761 3.5 12.5V6Z" fill="#4DA9FF"/>
<path fill-rule="evenodd" clip-rule="evenodd" d="M16.98 6C15.3342 6 14 7.33419 14 8.98C14 10.6258 15.3342 11.96 16.98 11.96H23V6H16.98ZM18 8.98003C18 9.52866 17.5523 9.97336 17 9.97336C16.4477 9.97336 16 9.52866 16 8.98003C16 8.4314 16.4477 7.9867 17 7.9867C17.5523 7.9867 18 8.4314 18 8.98003Z" fill="#4DA9FF"/>
</svg>
