<svg width="20" height="20" viewBox="0 0 20 20" fill="none" xmlns="http://www.w3.org/2000/svg">
<path d="M15 0H5C2.23858 0 0 2.23858 0 5V15C0 17.7614 2.23858 20 5 20H15C17.7614 20 20 17.7614 20 15V5C20 2.23858 17.7614 0 15 0Z" fill="#274591"/>
<path fill-rule="evenodd" clip-rule="evenodd" d="M5 0C2.23858 0 0 2.23858 0 5V15C0 17.7614 2.23858 20 5 20H15C17.7614 20 20 17.7614 20 15V5C20 2.23858 17.7614 0 15 0H5ZM9.48317 4.8077L6.16765 10.7019C6.09266 10.8353 6.189 11 6.34197 11H9.28174C9.39907 11 9.4912 11.1005 9.48097 11.2174L9.14328 15.0768C9.12452 15.2912 9.4113 15.3799 9.51683 15.1923L12.8323 9.29805C12.9073 9.16473 12.811 9 12.658 9H9.71826C9.60093 9 9.5088 8.89946 9.51903 8.78257L9.85672 4.92319C9.87548 4.70875 9.5887 4.62009 9.48317 4.8077Z" fill="#4DA9FF"/>
</svg>
