<svg width="20" height="20" viewBox="0 0 20 20" fill="none" xmlns="http://www.w3.org/2000/svg">
<path fill-rule="evenodd" clip-rule="evenodd" d="M0 5C0 2.23858 2.23858 0 5 0H15C17.7614 0 20 2.23858 20 5V15C20 17.7614 17.7614 20 15 20H5C2.23858 20 0 17.7614 0 15V5ZM4.4 6C4.4 5.11634 5.11634 4.4 6 4.4H7.5C7.83137 4.4 8.1 4.66863 8.1 5C8.1 5.33137 7.83137 5.6 7.5 5.6H6C5.77909 5.6 5.6 5.77909 5.6 6V7.5C5.6 7.83137 5.33137 8.1 5 8.1C4.66863 8.1 4.4 7.83137 4.4 7.5V6ZM11.9 5C11.9 4.66863 12.1686 4.4 12.5 4.4H14C14.8837 4.4 15.6 5.11634 15.6 6V7.5C15.6 7.83137 15.3314 8.1 15 8.1C14.6686 8.1 14.4 7.83137 14.4 7.5V6C14.4 5.77909 14.2209 5.6 14 5.6H12.5C12.1686 5.6 11.9 5.33137 11.9 5ZM5 11.9C5.33137 11.9 5.6 12.1686 5.6 12.5V14C5.6 14.2209 5.77909 14.4 6 14.4H7.5C7.83137 14.4 8.1 14.6686 8.1 15C8.1 15.3314 7.83137 15.6 7.5 15.6H6C5.11634 15.6 4.4 14.8837 4.4 14V12.5C4.4 12.1686 4.66863 11.9 5 11.9ZM15 11.9C15.3314 11.9 15.6 12.1686 15.6 12.5V14C15.6 14.8837 14.8837 15.6 14 15.6H12.5C12.1686 15.6 11.9 15.3314 11.9 15C11.9 14.6686 12.1686 14.4 12.5 14.4H14C14.2209 14.4 14.4 14.2209 14.4 14V12.5C14.4 12.1686 14.6686 11.9 15 11.9ZM7.5 10.5C7.22386 10.5 7 10.7239 7 11C7 11.2761 7.22386 11.5 7.5 11.5H12.5C12.7761 11.5 13 11.2761 13 11C13 10.7239 12.7761 10.5 12.5 10.5H7.5Z" fill="#4DA9FF"/>
</svg>
