<svg width="20" height="20" viewBox="0 0 20 20" fill="none" xmlns="http://www.w3.org/2000/svg">
<path fill-rule="evenodd" clip-rule="evenodd" d="M0 5C0 2.23858 2.23858 0 5 0H15C17.7614 0 20 2.23858 20 5V15C20 17.7614 17.7614 20 15 20H5C2.23858 20 0 17.7614 0 15V5ZM10.3067 8.52C10.5316 8.35127 10.8436 8.36143 11.0571 8.54445L13.3905 10.5444C13.6421 10.7601 13.6712 11.1389 13.4556 11.3905C13.2399 11.6421 12.8611 11.6712 12.6095 11.4556L10.6416 9.76878L8.36 11.48C8.0949 11.6788 7.71882 11.6251 7.52 11.36C7.32118 11.0949 7.3749 10.7188 7.64 10.52L10.3067 8.52ZM7 4.5C6.72386 4.5 6.5 4.72386 6.5 5C6.5 5.27614 6.72386 5.5 7 5.5H14C14.2761 5.5 14.5 5.27614 14.5 5C14.5 4.72386 14.2761 4.5 14 4.5H7Z" fill="#4DA9FF"/>
</svg>
